<?xml version="1.0" encoding="UTF-8"?>
<svg xmlns="http://www.w3.org/2000/svg" xmlns:xlink="http://www.w3.org/1999/xlink" viewBox="0 0 150 150" width="150px" height="150px">
<g id="surface5482355">
<path style="fill-rule:nonzero;fill:rgb(93.725491%,100%,98.431373%);fill-opacity:1;stroke-width:10;stroke-linecap:butt;stroke-linejoin:round;stroke:rgb(30.980393%,59.607846%,79.215688%);stroke-opacity:1;stroke-miterlimit:10;" d="M 130.72057 68.799053 C 130.72057 83.32672 125.426147 96.617285 116.638449 106.85538 L 161.359018 151.680226 L 151.680226 161.359018 L 106.424053 116.207122 C 96.802139 123.169974 85.00463 127.279432 72.24019 127.279432 C 39.97597 127.279432 13.75981 101.063272 13.75981 68.799053 C 13.75981 36.534833 39.97597 10.318673 72.24019 10.318673 C 104.50441 10.318673 130.72057 36.534833 130.72057 68.799053 Z M 20.642086 68.799053 C 20.642086 97.342483 43.69676 120.401897 72.24019 120.401897 C 100.778881 120.401897 123.838295 97.342483 123.838295 68.799053 C 123.838295 40.260362 100.778881 17.200948 72.24019 17.200948 C 43.69676 17.200948 20.642086 40.260362 20.642086 68.799053 Z M 20.642086 68.799053 " transform="matrix(0.824128,0,0,0.824128,4.125,4.125)"/>
<path style=" stroke:none;fill-rule:nonzero;fill:rgb(93.725491%,100%,98.431373%);fill-opacity:1;" d="M 63.660156 12.628906 C 37.070312 12.628906 15.464844 34.234375 15.464844 60.824219 C 15.464844 87.414062 37.070312 109.019531 63.660156 109.019531 C 74.179688 109.019531 83.902344 105.632812 91.832031 99.894531 L 129.128906 137.105469 L 137.105469 129.128906 L 100.25 92.1875 C 107.492188 83.75 111.855469 72.796875 111.855469 60.824219 C 111.855469 34.234375 90.25 12.628906 63.660156 12.628906 Z M 63.660156 18.300781 C 87.179688 18.300781 106.183594 37.304688 106.183594 60.824219 C 106.183594 84.347656 87.179688 103.351562 63.660156 103.351562 C 40.136719 103.351562 21.136719 84.347656 21.136719 60.824219 C 21.136719 37.304688 40.136719 18.300781 63.660156 18.300781 Z M 63.660156 18.300781 "/>
</g>
</svg>
